#Comment line ignore any data following # character 
#Hierarchical Translation and Rotation (.htr) file 
[Header]	
#Header keywords are followed by a single value 
FileType HTR		#Single word string
DataType HTRS		#Translation followed by rotation and scale data
FileVersion 1		#integer
NumSegments 84		#integer
NumFrames 2		#integer
DataFrameRate 30		#integer, data frame rate in this file
EulerRotationOrder ZYX
CalibrationUnits mm
RotationUnits Degrees
GlobalAxisofGravity Y
BoneLengthAxis Y
ScaleFactor 1.00
[SegmentNames&Hierarchy]
#CHILD	PARENT
MASTER GLOBAL
root MASTER
chest root
L_mid_tent01 root
R_mid_tent01 root
spine01 root
Bip01_Neck chest
L_humerus chest
R_humerus chest
weapon_bone chest
Bip01_Head Bip01_Neck
eye_left_bone Bip01_Head
eye_right_bone Bip01_Head
L_forearm L_humerus
L_front_hand L_forearm
L_weapon_bone L_forearm
L_front_hand01_01 L_front_hand
L_front_hand02_01 L_front_hand
L_front_hand03_01 L_front_hand
L_front_hand01_02 L_front_hand01_01
L_front_hand02_02 L_front_hand02_01
L_front_hand03_02 L_front_hand03_01
R_forearm R_humerus
R_front_hand R_forearm
R_weapon_bone R_forearm
R_front_hand01_01 R_front_hand
R_front_hand02_01 R_front_hand
R_front_hand03_01 R_front_hand
R_front_hand01_02 R_front_hand01_01
R_front_hand02_02 R_front_hand02_01
R_front_hand03_02 R_front_hand03_01
null_rope01_connect L_mid_tent01
Rope1_Seg01 null_rope01_connect
Rope1_Seg02 Rope1_Seg01
Rope1_Seg03 Rope1_Seg02
Rope1_Seg04 Rope1_Seg03
Rope1_Seg05 Rope1_Seg04
Rope1_Seg06 Rope1_Seg05
Rope1_Seg07 Rope1_Seg06
Rope1_Seg09 Rope1_Seg07
L_mid_hand01 Rope1_Seg09
L_mid_hand02 Rope1_Seg09
L_mid_hand03 Rope1_Seg09
null_rope02_connect R_mid_tent01
Rope2_Seg01 null_rope02_connect
Rope2_Seg02 Rope2_Seg01
Rope2_Seg03 Rope2_Seg02
Rope2_Seg04 Rope2_Seg03
Rope2_Seg05 Rope2_Seg04
Rope2_Seg06 Rope2_Seg05
Rope2_Seg07 Rope2_Seg06
Rope2_Seg09 Rope2_Seg07
R_mid_hand01 Rope2_Seg09
R_mid_hand02 Rope2_Seg09
R_mid_hand03 Rope2_Seg09
spine02 spine01
spine03 spine02
pelvis spine03
null_rope03_connect pelvis
null_rope04_connect pelvis
Rope3_Seg01 null_rope03_connect
Rope3_Seg02 Rope3_Seg01
Rope3_Seg03 Rope3_Seg02
Rope3_Seg04 Rope3_Seg03
Rope3_Seg05 Rope3_Seg04
Rope3_Seg06 Rope3_Seg05
Rope3_Seg07 Rope3_Seg06
Rope3_Seg08 Rope3_Seg07
Rope3_Seg09 Rope3_Seg08
R_rear_hand01 Rope3_Seg09
R_rear_hand02 Rope3_Seg09
R_rear_hand03 Rope3_Seg09
Rope4_Seg01 null_rope04_connect
Rope4_Seg02 Rope4_Seg01
Rope4_Seg03 Rope4_Seg02
Rope4_Seg04 Rope4_Seg03
Rope4_Seg05 Rope4_Seg04
Rope4_Seg06 Rope4_Seg05
Rope4_Seg07 Rope4_Seg06
Rope4_Seg08 Rope4_Seg07
Rope4_Seg09 Rope4_Seg08
L_rear_hand01 Rope4_Seg09
L_rear_hand02 Rope4_Seg09
L_rear_hand03 Rope4_Seg09
[BasePosition]
#SegmentName Tx, Ty, Tz, Rx, Ry, Rz, BoneLength
MASTER 0.000000 0.000000 0.000000 -90.000000 0.000000 0.000000 10.000000 
root 0.000000 0.000000 0.000000 0.000000 0.000000 0.000000 10.000000 
chest 0.000000 0.000000 0.000000 0.000000 0.000000 0.000000 10.000000 
L_mid_tent01 0.000000 0.000000 0.000000 0.000000 0.000000 0.000000 10.000000 
R_mid_tent01 0.000000 0.000000 0.000000 0.000000 0.000000 0.000000 10.000000 
spine01 0.000000 0.000000 0.000000 0.000000 0.000000 0.000000 10.000000 
Bip01_Neck 0.000000 0.000000 0.000000 0.000000 0.000000 0.000000 10.000000 
L_humerus 0.000000 0.000000 0.000000 0.000000 0.000000 0.000000 10.000000 
R_humerus 0.000000 0.000000 0.000000 0.000000 0.000000 0.000000 10.000000 
weapon_bone 0.000000 0.000000 0.000000 0.000000 0.000000 0.000000 10.000000 
Bip01_Head 0.000000 0.000000 0.000000 0.000000 0.000000 0.000000 10.000000 
eye_left_bone 0.000000 0.000000 0.000000 0.000000 0.000000 0.000000 10.000000 
eye_right_bone 0.000000 0.000000 0.000000 0.000000 0.000000 0.000000 10.000000 
L_forearm 0.000000 0.000000 0.000000 0.000000 0.000000 0.000000 10.000000 
L_front_hand 0.000000 0.000000 0.000000 0.000000 0.000000 0.000000 10.000000 
L_weapon_bone 0.000000 0.000000 0.000000 0.000000 0.000000 0.000000 10.000000 
L_front_hand01_01 0.000000 0.000000 0.000000 0.000000 0.000000 0.000000 10.000000 
L_front_hand02_01 0.000000 0.000000 0.000000 0.000000 0.000000 0.000000 10.000000 
L_front_hand03_01 0.000000 0.000000 0.000000 0.000000 0.000000 0.000000 10.000000 
L_front_hand01_02 0.000000 0.000000 0.000000 0.000000 0.000000 0.000000 10.000000 
L_front_hand02_02 0.000000 0.000000 0.000000 0.000000 0.000000 0.000000 10.000000 
L_front_hand03_02 0.000000 0.000000 0.000000 0.000000 0.000000 0.000000 10.000000 
R_forearm 0.000000 0.000000 0.000000 0.000000 0.000000 0.000000 10.000000 
R_front_hand 0.000000 0.000000 0.000000 0.000000 0.000000 0.000000 10.000000 
R_weapon_bone 0.000000 0.000000 0.000000 0.000000 0.000000 0.000000 10.000000 
R_front_hand01_01 0.000000 0.000000 0.000000 0.000000 0.000000 0.000000 10.000000 
R_front_hand02_01 0.000000 0.000000 0.000000 0.000000 0.000000 0.000000 10.000000 
R_front_hand03_01 0.000000 0.000000 0.000000 0.000000 0.000000 0.000000 10.000000 
R_front_hand01_02 0.000000 0.000000 0.000000 0.000000 0.000000 0.000000 10.000000 
R_front_hand02_02 0.000000 0.000000 0.000000 0.000000 0.000000 0.000000 10.000000 
R_front_hand03_02 0.000000 0.000000 0.000000 0.000000 0.000000 0.000000 10.000000 
null_rope01_connect 0.000000 0.000000 0.000000 0.000000 0.000000 0.000000 10.000000 
Rope1_Seg01 0.000000 0.000000 0.000000 0.000000 0.000000 0.000000 10.000000 
Rope1_Seg02 0.000000 0.000000 0.000000 0.000000 0.000000 0.000000 10.000000 
Rope1_Seg03 0.000000 0.000000 0.000000 0.000000 0.000000 0.000000 10.000000 
Rope1_Seg04 0.000000 0.000000 0.000000 0.000000 0.000000 0.000000 10.000000 
Rope1_Seg05 0.000000 0.000000 0.000000 0.000000 0.000000 0.000000 10.000000 
Rope1_Seg06 0.000000 0.000000 0.000000 0.000000 0.000000 0.000000 10.000000 
Rope1_Seg07 0.000000 0.000000 0.000000 0.000000 0.000000 0.000000 10.000000 
Rope1_Seg09 0.000000 0.000000 0.000000 0.000000 0.000000 0.000000 10.000000 
L_mid_hand01 0.000000 0.000000 0.000000 0.000000 0.000000 0.000000 10.000000 
L_mid_hand02 0.000000 0.000000 0.000000 0.000000 0.000000 0.000000 10.000000 
L_mid_hand03 0.000000 0.000000 0.000000 0.000000 0.000000 0.000000 10.000000 
null_rope02_connect 0.000000 0.000000 0.000000 0.000000 0.000000 0.000000 10.000000 
Rope2_Seg01 0.000000 0.000000 0.000000 0.000000 0.000000 0.000000 10.000000 
Rope2_Seg02 0.000000 0.000000 0.000000 0.000000 0.000000 0.000000 10.000000 
Rope2_Seg03 0.000000 0.000000 0.000000 0.000000 0.000000 0.000000 10.000000 
Rope2_Seg04 0.000000 0.000000 0.000000 0.000000 0.000000 0.000000 10.000000 
Rope2_Seg05 0.000000 0.000000 0.000000 0.000000 0.000000 0.000000 10.000000 
Rope2_Seg06 0.000000 0.000000 0.000000 0.000000 0.000000 0.000000 10.000000 
Rope2_Seg07 0.000000 0.000000 0.000000 0.000000 0.000000 0.000000 10.000000 
Rope2_Seg09 0.000000 0.000000 0.000000 0.000000 0.000000 0.000000 10.000000 
R_mid_hand01 0.000000 0.000000 0.000000 0.000000 0.000000 0.000000 10.000000 
R_mid_hand02 0.000000 0.000000 0.000000 0.000000 0.000000 0.000000 10.000000 
R_mid_hand03 0.000000 0.000000 0.000000 0.000000 0.000000 0.000000 10.000000 
spine02 0.000000 0.000000 0.000000 0.000000 0.000000 0.000000 10.000000 
spine03 0.000000 0.000000 0.000000 0.000000 0.000000 0.000000 10.000000 
pelvis 0.000000 0.000000 0.000000 0.000000 0.000000 0.000000 10.000000 
null_rope03_connect 0.000000 0.000000 0.000000 0.000000 0.000000 0.000000 10.000000 
null_rope04_connect 0.000000 0.000000 0.000000 0.000000 0.000000 0.000000 10.000000 
Rope3_Seg01 0.000000 0.000000 0.000000 0.000000 0.000000 0.000000 10.000000 
Rope3_Seg02 0.000000 0.000000 0.000000 0.000000 0.000000 0.000000 10.000000 
Rope3_Seg03 0.000000 0.000000 0.000000 0.000000 0.000000 0.000000 10.000000 
Rope3_Seg04 0.000000 0.000000 0.000000 0.000000 0.000000 0.000000 10.000000 
Rope3_Seg05 0.000000 0.000000 0.000000 0.000000 0.000000 0.000000 10.000000 
Rope3_Seg06 0.000000 0.000000 0.000000 0.000000 0.000000 0.000000 10.000000 
Rope3_Seg07 0.000000 0.000000 0.000000 0.000000 0.000000 0.000000 10.000000 
Rope3_Seg08 0.000000 0.000000 0.000000 0.000000 0.000000 0.000000 10.000000 
Rope3_Seg09 0.000000 0.000000 0.000000 0.000000 0.000000 0.000000 10.000000 
R_rear_hand01 0.000000 0.000000 0.000000 0.000000 0.000000 0.000000 10.000000 
R_rear_hand02 0.000000 0.000000 0.000000 0.000000 0.000000 0.000000 10.000000 
R_rear_hand03 0.000000 0.000000 0.000000 0.000000 0.000000 0.000000 10.000000 
Rope4_Seg01 0.000000 0.000000 0.000000 0.000000 0.000000 0.000000 10.000000 
Rope4_Seg02 0.000000 0.000000 0.000000 0.000000 0.000000 0.000000 10.000000 
Rope4_Seg03 0.000000 0.000000 0.000000 0.000000 0.000000 0.000000 10.000000 
Rope4_Seg04 0.000000 0.000000 0.000000 0.000000 0.000000 0.000000 10.000000 
Rope4_Seg05 0.000000 0.000000 0.000000 0.000000 0.000000 0.000000 10.000000 
Rope4_Seg06 0.000000 0.000000 0.000000 0.000000 0.000000 0.000000 10.000000 
Rope4_Seg07 0.000000 0.000000 0.000000 0.000000 0.000000 0.000000 10.000000 
Rope4_Seg08 0.000000 0.000000 0.000000 0.000000 0.000000 0.000000 10.000000 
Rope4_Seg09 0.000000 0.000000 0.000000 0.000000 0.000000 0.000000 10.000000 
L_rear_hand01 0.000000 0.000000 0.000000 0.000000 0.000000 0.000000 10.000000 
L_rear_hand02 0.000000 0.000000 0.000000 0.000000 0.000000 0.000000 10.000000 
L_rear_hand03 0.000000 0.000000 0.000000 0.000000 0.000000 0.000000 10.000000 
#Beginning of Data. Separated by tabs
#Fr	Tx	Ty	Tz	Rx	Ry	Rz	SF
[MASTER]
18 3114.027100 4423.579590 2037.591675 0.001660 0.001660 0.001660 5780.744141
19 3303.439209 4663.583984 2019.681396 0.001660 0.001660 0.001660 6061.421875
[root]
18 -37.882385 -51.398621 1502.621826 -113.941925 -20.520117 -101.205597 1503.977783
19 -37.610161 -53.509224 1502.613037 -112.407112 -21.499912 -99.981804 1504.035767
[chest]
18 -84.512650 -34.090519 0.000000 -16.554428 19.701616 147.554016 91.129311
19 -84.512650 -34.090519 0.000000 -16.244131 20.147520 148.540695 91.129311
[L_mid_tent01]
18 27.298349 22.179131 -249.919006 3.238857 25.371414 81.248024 252.381912
19 27.298307 22.179123 -249.919022 3.405472 26.456772 81.399506 252.381912
[R_mid_tent01]
18 23.228794 24.509907 226.238495 160.821335 -39.702553 86.066872 228.744751
19 23.228794 24.509907 226.238495 160.223480 -41.953812 87.171989 228.744751
[spine01]
18 -0.361383 -0.195265 0.000000 0.002047 0.001149 31.407825 0.410763
19 -0.361383 -0.195265 0.000000 0.002044 0.001154 31.099689 0.410763
[Bip01_Neck]
18 165.484543 71.581718 0.000119 176.643677 -1.657967 43.431911 180.302734
19 165.484543 71.581718 0.000119 176.643677 -1.657967 43.431911 180.302734
[L_humerus]
18 -13.983130 -135.272980 -120.471481 -7.039400 63.862324 82.803917 181.680161
19 -13.983130 -135.272980 -120.471481 -6.996173 64.017929 82.851776 181.680161
[R_humerus]
18 -13.983309 -135.273102 125.287651 25.646862 -64.655174 70.080200 184.909012
19 -13.983309 -135.273102 125.287651 25.698759 -64.815109 70.025986 184.909012
[weapon_bone]
18 235.964890 -300.705902 0.000000 0.000000 -89.951546 -128.212341 382.234833
19 235.964890 -300.705902 0.000000 0.000000 -89.951546 -128.212341 382.234833
[Bip01_Head]
18 213.543091 185.439743 15.337371 4.440182 -1.153556 -43.900532 283.238037
19 213.500870 185.557144 13.822117 4.439694 -0.993684 -43.899052 283.205109
[eye_left_bone]
18 -24.626970 125.451866 -64.772606 0.000000 -90.000000 -99.840431 143.318359
19 -24.626970 125.451866 -64.772606 0.000000 -90.000000 -99.840431 143.318359
[eye_right_bone]
18 -24.626970 125.451866 64.327362 0.000000 -89.965736 80.156380 143.117676
19 -24.626970 125.451866 64.327362 0.000000 -89.965736 80.156380 143.117676
[L_forearm]
18 322.776093 0.000000 -0.000119 0.000430 -0.002307 -111.119781 322.776093
19 322.776093 0.000000 -0.000119 0.000429 -0.002308 -111.057785 322.776093
[L_front_hand]
18 241.149185 -0.042021 -3.300071 -178.667953 -1.835447 -27.422350 241.171753
19 241.149185 -0.042021 -3.300071 -178.667953 -1.835447 -27.422350 241.171753
[L_weapon_bone]
18 156.183838 0.000000 0.000000 0.000014 0.000007 0.000001 156.183838
19 156.183838 0.000000 0.000000 0.000014 0.000007 0.000001 156.183838
[L_front_hand01_01]
18 86.095154 20.947098 -0.655860 -0.289102 -0.524108 66.611076 88.609184
19 86.095154 20.947098 -0.655860 -0.291918 -0.522544 67.227623 88.609184
[L_front_hand02_01]
18 86.935165 -11.437475 24.513514 142.580521 -55.269005 -47.395390 91.046425
19 86.935165 -11.437475 24.513514 143.299149 -55.645802 -48.269920 91.046425
[L_front_hand03_01]
18 86.637497 -14.123976 -20.424902 -142.879883 53.494282 -49.391994 90.126129
19 86.637497 -14.123976 -20.424902 -143.556351 53.862476 -50.232788 90.126129
[L_front_hand01_02]
18 71.020905 -0.000179 0.000030 0.000315 -0.002326 -105.441971 71.020905
19 71.020905 -0.000179 0.000030 0.000316 -0.002326 -105.462708 71.020905
[L_front_hand02_02]
18 71.020927 -0.000119 0.000060 0.000315 -0.002326 -105.441971 71.020927
19 71.020927 -0.000119 0.000060 0.000316 -0.002326 -105.462708 71.020927
[L_front_hand03_02]
18 71.020905 -0.000060 0.000060 0.000315 -0.002326 -105.441971 71.020905
19 71.020905 -0.000060 0.000060 0.000316 -0.002326 -105.462708 71.020905
[R_forearm]
18 322.776428 -0.000060 0.000030 0.201109 0.068162 -109.770760 322.776428
19 322.776428 -0.000060 0.000030 0.201138 0.068078 -109.722389 322.776428
[R_front_hand]
18 238.847015 -0.006795 2.210259 -2.635298 -10.645461 -26.312506 238.857239
19 238.847015 -0.006795 2.210259 -2.635298 -10.645461 -26.312506 238.857239
[R_weapon_bone]
18 155.664093 0.002503 -0.000030 0.003487 0.001180 -90.988930 155.664078
19 155.664093 0.002503 -0.000030 0.003487 0.001180 -90.988930 155.664078
[R_front_hand01_01]
18 87.624611 14.231146 22.918642 -140.217056 -53.925083 44.603291 91.683487
19 87.624611 14.231146 22.918642 -141.470367 -54.661602 46.147430 91.683487
[R_front_hand02_01]
18 89.356956 14.367283 -19.491137 140.984955 52.347897 47.247559 92.579636
19 89.356956 14.367283 -19.491137 142.182632 53.068485 48.753605 92.579636
[R_front_hand03_01]
18 87.286232 -22.307278 -0.143439 0.075044 -0.448119 -64.698715 90.091743
19 87.286232 -22.307278 -0.143439 0.083738 -0.444647 -65.861671 90.091743
[R_front_hand01_02]
18 71.020905 0.000060 0.000119 0.002323 -0.000334 106.381714 71.020905
19 71.020905 0.000060 0.000119 0.002323 -0.000334 106.381714 71.020905
[R_front_hand02_02]
18 71.020844 -0.000030 -0.000119 0.002323 -0.000334 106.381714 71.020836
19 71.020844 -0.000030 -0.000119 0.002323 -0.000334 106.381714 71.020836
[R_front_hand03_02]
18 71.020905 0.000000 0.000030 0.002323 -0.000334 106.381714 71.020905
19 71.020905 0.000000 0.000030 0.002323 -0.000334 106.381714 71.020905
[null_rope01_connect]
18 328.732483 0.000000 -0.000238 -142.935379 -34.829346 170.010513 328.732483
19 328.732483 0.000000 -0.000238 -142.279877 -35.788864 170.805923 328.732483
[Rope1_Seg01]
18 -0.000016 0.000022 0.000065 106.278275 -26.372332 172.358139 0.000070
19 -0.000017 0.000021 0.000069 107.283623 -26.188995 170.371155 0.000074
[Rope1_Seg02]
18 139.999863 -0.000179 0.000000 1.299679 -9.783669 -4.022033 139.999863
19 139.999863 -0.000179 0.000000 1.041825 -9.633857 -3.973230 139.999863
[Rope1_Seg03]
18 139.999924 0.000060 -0.000060 1.166930 -17.241829 -6.917438 139.999924
19 139.999924 0.000060 -0.000060 0.787347 -16.973677 -6.935590 139.999924
[Rope1_Seg04]
18 139.999924 -0.000060 -0.000119 -0.028030 -21.986845 -12.476856 139.999924
19 139.999924 -0.000060 -0.000119 -0.044532 -21.027439 -13.689521 139.999924
[Rope1_Seg05]
18 139.999832 0.000119 -0.000060 -2.942531 -20.076967 -7.875211 139.999832
19 139.999832 0.000119 -0.000060 -3.064890 -21.456043 -7.854381 139.999832
[Rope1_Seg06]
18 139.999954 0.000119 -0.000060 -11.747921 -34.290649 -7.038654 139.999954
19 139.999954 0.000119 -0.000060 -13.998365 -36.166679 -4.183138 139.999954
[Rope1_Seg07]
18 139.999985 0.000060 0.000000 -13.991958 -22.858467 -11.012880 139.999985
19 139.999985 0.000060 0.000000 -14.543044 -20.558872 -8.738358 139.999985
[Rope1_Seg09]
18 121.602913 0.000119 -0.000089 -89.793175 -1.359789 0.847147 121.602913
19 121.602913 0.000119 -0.000089 -89.793175 -1.359789 0.847147 121.602913
[L_mid_hand01]
18 103.859421 1.038730 8.195221 129.242493 -66.931091 -37.458961 104.187431
19 103.859421 1.038730 8.195221 130.544373 -67.584534 -38.866943 104.187431
[L_mid_hand02]
18 105.572853 -4.139662 -10.864139 -168.131699 43.239815 -72.352119 106.211075
19 105.572853 -4.139662 -10.864139 -168.923172 43.409309 -73.498886 106.211075
[L_mid_hand03]
18 104.641464 17.579376 -3.913581 -6.285013 17.719217 74.000862 106.179977
19 104.641464 17.579376 -3.913581 -6.012627 17.808174 74.893669 106.179977
[null_rope02_connect]
18 328.732849 0.000179 -0.000119 -110.263771 74.856590 42.621330 328.732849
19 328.732849 0.000179 -0.000119 -115.943146 70.965981 35.935127 328.732849
[Rope2_Seg01]
18 0.000054 0.000088 0.000000 -87.565857 27.743824 -22.700809 0.000103
19 0.000055 0.000084 0.000000 -88.928947 28.019220 -23.181028 0.000101
[Rope2_Seg02]
18 139.999741 -0.000060 -0.000119 -8.945145 -0.629542 4.367883 139.999756
19 139.999741 -0.000060 -0.000119 -8.091526 -1.187015 4.236634 139.999756
[Rope2_Seg03]
18 140.000107 0.000030 0.000000 -11.007684 -2.242219 7.293894 140.000107
19 140.000107 0.000030 0.000000 -9.880733 -3.160385 7.206728 140.000107
[Rope2_Seg04]
18 139.999802 0.000000 -0.000060 -13.248282 -7.695183 14.737677 139.999802
19 139.999802 0.000000 -0.000060 -12.479855 -10.166472 15.825615 139.999802
[Rope2_Seg05]
18 139.999985 -0.000060 0.000119 -17.828960 -25.927034 37.193405 139.999985
19 139.999985 -0.000060 0.000119 -18.884493 -31.845512 41.595760 139.999985
[Rope2_Seg06]
18 139.999893 -0.000030 -0.000119 -2.599350 -21.413744 19.035822 139.999893
19 139.999893 -0.000030 -0.000119 -1.106243 -20.478754 16.449530 139.999893
[Rope2_Seg07]
18 139.999893 0.000060 -0.000060 -0.179906 -14.483758 8.337610 139.999893
19 139.999893 0.000060 -0.000060 -0.651062 -11.295229 4.987748 139.999893
[Rope2_Seg09]
18 121.338966 0.000089 -0.000060 33.793236 -1.359788 -0.847141 121.338966
19 121.338966 0.000089 -0.000060 33.793236 -1.359788 -0.847141 121.338966
[R_mid_hand01]
18 104.680779 11.144459 -10.335981 -24.361835 42.075401 58.684284 105.778534
19 104.680779 11.144459 -10.335981 -20.399694 43.830383 64.493835 105.778534
[R_mid_hand02]
18 104.070427 2.443552 8.231699 59.930573 -60.321301 27.236141 104.424065
19 104.070427 2.443552 8.231699 55.242626 -64.206024 32.532070 104.424065
[R_mid_hand03]
18 106.028137 -11.221827 -5.996406 -174.631485 14.897616 -67.203407 106.788818
19 106.028137 -11.221827 -5.996406 -175.861618 15.275425 -71.940262 106.788818
[spine02]
18 129.756927 0.001550 0.000119 0.530016 -4.024931 -15.369446 129.756927
19 129.756927 0.001550 0.000119 0.524662 -4.025641 -15.286874 129.756927
[spine03]
18 78.614014 0.081722 -4.898868 1.998890 3.782508 18.002247 78.766541
19 78.614006 0.081718 -4.898860 1.995439 3.783727 17.947044 78.766533
[pelvis]
18 169.435242 0.051022 0.000000 -0.070208 -0.177785 17.188129 169.435257
19 169.435242 0.051022 0.000000 -0.070045 -0.177849 17.083111 169.435257
[null_rope03_connect]
18 -1.257226 -2.466202 137.391083 -138.485062 -61.353416 -164.259613 137.418976
19 -1.257226 -2.466202 137.391083 -138.242935 -63.452915 -162.769516 137.418976
[null_rope04_connect]
18 -1.259640 -2.480268 -137.844437 -138.485062 -61.353416 -164.259613 137.872513
19 -1.259640 -2.480268 -137.844437 -138.242935 -63.452915 -162.769516 137.872513
[Rope3_Seg01]
18 -0.000011 -0.000303 -0.000153 -130.625107 5.774388 -76.854507 0.000340
19 -0.000010 -0.000317 -0.000153 -131.313797 -4.729138 -61.763203 0.000352
[Rope3_Seg02]
18 139.999924 -0.000119 0.000060 1.449493 10.731004 8.715356 139.999924
19 139.999924 -0.000119 0.000060 -0.027672 11.451309 8.142428 139.999924
[Rope3_Seg03]
18 139.999924 -0.000119 0.000119 6.016637 17.953255 8.745319 139.999924
19 139.999924 -0.000119 0.000119 4.239597 23.619493 10.988230 139.999924
[Rope3_Seg04]
18 139.999924 0.000119 0.000000 -17.606316 -48.570263 9.233868 139.999924
19 139.999924 0.000119 0.000000 -4.502075 -53.329742 3.653510 139.999924
[Rope3_Seg05]
18 139.999924 -0.000238 0.000060 11.193274 -46.100098 -7.298896 139.999924
19 139.999924 -0.000238 0.000060 20.932766 -48.142151 -2.561417 139.999924
[Rope3_Seg06]
18 139.999893 -0.000119 -0.000060 5.452389 -10.731834 0.483771 139.999893
19 139.999893 -0.000119 -0.000060 6.340565 -8.424180 2.956764 139.999893
[Rope3_Seg07]
18 139.999771 0.000060 -0.000119 2.201767 -3.059091 0.432750 139.999771
19 139.999771 0.000060 -0.000119 2.878246 -2.998753 1.450629 139.999771
[Rope3_Seg08]
18 139.999985 -0.000060 0.000000 0.441788 0.160029 -0.027401 139.999985
19 139.999985 -0.000060 0.000000 0.925458 -0.470302 0.259998 139.999985
[Rope3_Seg09]
18 90.185997 -0.000179 -0.000060 89.793228 -1.359877 -0.847183 90.185997
19 90.185997 -0.000179 -0.000060 89.793228 -1.359877 -0.847183 90.185997
[R_rear_hand01]
18 103.366196 -6.073594 -10.757982 -174.043228 23.976637 -65.002998 104.101845
19 103.366196 -6.073594 -10.757982 -175.914093 24.346796 -69.567566 104.101845
[R_rear_hand02]
18 100.509819 12.039542 -7.992327 -18.533085 34.659092 62.503902 101.543350
19 100.509819 12.039542 -7.992327 -15.704349 35.886925 67.395027 101.543350
[R_rear_hand03]
18 101.539970 5.215704 5.435467 76.952385 -63.971771 15.629117 101.819031
19 101.539970 5.215704 5.435467 74.640678 -68.020927 18.152246 101.819031
[Rope4_Seg01]
18 0.000000 -0.000541 -0.000217 75.475845 -31.656090 -147.801620 0.000583
19 0.000000 -0.000570 -0.000221 82.990273 -36.965359 -150.298828 0.000612
[Rope4_Seg02]
18 139.999985 0.000060 0.000119 -27.712498 6.216016 -24.118025 139.999985
19 139.999985 0.000060 0.000119 -19.517759 1.699684 -16.758852 139.999985
[Rope4_Seg03]
18 139.999924 0.000000 -0.000238 -19.995159 22.793612 -17.038885 139.999924
19 139.999924 0.000000 -0.000238 -31.689978 21.934219 -26.392071 139.999924
[Rope4_Seg04]
18 139.999985 0.000000 0.000119 -17.537720 10.775290 -27.974855 139.999985
19 139.999985 0.000000 0.000119 -41.727592 8.863544 -57.578011 139.999985
[Rope4_Seg05]
18 139.999802 -0.000060 -0.000119 -32.280827 20.171618 -55.477032 139.999802
19 139.999802 -0.000060 -0.000119 -24.889807 23.818729 -39.421303 139.999802
[Rope4_Seg06]
18 139.999924 0.000000 0.000060 -3.965255 13.696394 -11.807232 139.999924
19 139.999924 0.000000 0.000060 -1.438789 7.110644 -4.662970 139.999924
[Rope4_Seg07]
18 139.999802 0.000000 0.000000 -0.339819 4.539716 -3.491907 139.999802
19 139.999802 0.000000 0.000000 -0.235356 2.842421 -1.775350 139.999802
[Rope4_Seg08]
18 139.999924 0.000000 0.000119 -1.486177 0.780429 -0.592119 139.999924
19 139.999924 0.000000 0.000119 -1.508711 0.590430 -0.362242 139.999924
[Rope4_Seg09]
18 90.185791 0.000060 0.000060 -135.617828 2.228885 0.850567 90.185791
19 90.185791 0.000060 0.000060 -135.617828 2.228885 0.850567 90.185791
[L_rear_hand01]
18 101.696655 -8.392275 -7.654577 -13.354956 -36.717747 108.641342 102.329041
19 101.696655 -8.392275 -7.654577 -12.874829 -36.868488 107.832764 102.329041
[L_rear_hand02]
18 102.726799 -1.568258 5.773216 72.111618 71.190071 159.144638 102.900848
19 102.726799 -1.568258 5.773216 71.484581 71.816628 158.486160 102.900848
[L_rear_hand03]
18 104.552910 9.721220 -10.420293 -177.406540 -24.537506 -106.814919 105.519653
19 104.552910 9.721220 -10.420293 -177.714203 -24.565960 -106.089035 105.519653
